<svg xmlns="http://www.w3.org/2000/svg" width="128" height="128" viewBox="0 0 128 128">
  <!-- Background -->
  <rect width="128" height="128" fill="#4A90E2" rx="8"/>
  
  <!-- Garage Door -->
  <rect x="20" y="30" width="88" height="70" fill="#2C3E50" rx="4"/>
  
  <!-- Garage Door Panels -->
  <line x1="64" y1="30" x2="64" y2="100" stroke="#34495E" stroke-width="2"/>
  <rect x="22" y="32" width="40" height="68" fill="#34495E" opacity="0.3"/>
  <rect x="66" y="32" width="40" height="68" fill="#34495E" opacity="0.3"/>
  
  <!-- Garage Door Handle Left -->
  <circle cx="35" cy="65" r="3" fill="#ECF0F1"/>
  <circle cx="93" cy="65" r="3" fill="#ECF0F1"/>
  
  <!-- Roof -->
  <polygon points="10,30 64,10 118,30" fill="#E74C3C"/>
  
  <!-- Windows -->
  <rect x="30" y="45" width="12" height="12" fill="#3498DB" rx="2"/>
  <rect x="86" y="45" width="12" height="12" fill="#3498DB" rx="2"/>
  
  <!-- Door Frame -->
  <rect x="18" y="28" width="92" height="74" fill="none" stroke="#1A252F" stroke-width="2" rx="4"/>
  
  <!-- Ground/Base -->
  <rect x="0" y="100" width="128" height="28" fill="#7F8C8D"/>
  
  <!-- API/Integration Symbol (Gear) -->
  <g transform="translate(64, 20)">
    <circle cx="0" cy="0" r="8" fill="#F39C12" opacity="0.9"/>
    <circle cx="0" cy="0" r="5" fill="none" stroke="#FFFFFF" stroke-width="1.5"/>
    <circle cx="0" cy="0" r="2" fill="#FFFFFF"/>
    <path d="M -5,0 L -8,0 M 5,0 L 8,0 M 0,-5 L 0,-8 M 0,5 L 0,8" stroke="#FFFFFF" stroke-width="1.5" stroke-linecap="round"/>
  </g>
</svg>

